<svg width="200" height="33" viewBox="0 0 200 33" fill="none" xmlns="http://www.w3.org/2000/svg">
<g clip-path="url(#clip0_2722_409)">
<path d="M72.2444 10.6242L69.5883 13.1031C67.8176 11.2439 65.7813 10.27 63.568 10.27C61.7087 10.27 60.1151 10.8898 58.7871 12.2178C57.4591 13.4573 56.8393 15.0509 56.8393 16.9987C56.8393 18.3267 57.1049 19.4776 57.7247 20.4515C58.2559 21.4254 59.1412 22.2222 60.1151 22.842C61.089 23.4617 62.3285 23.7273 63.568 23.7273C64.6304 23.7273 65.6042 23.5502 66.5781 23.1076C67.4635 22.6649 68.4374 21.9566 69.4998 20.8942L72.0673 23.5502C70.6507 24.9668 69.2342 25.9407 67.9947 26.4719C66.6667 27.0031 65.2501 27.2687 63.568 27.2687C60.5578 27.2687 57.9903 26.2948 56.0425 24.3471C54.0947 22.3993 53.1208 19.9203 53.1208 16.9101C53.1208 14.9624 53.5635 13.1917 54.4489 11.6866C55.3342 10.1815 56.5737 8.94201 58.2559 8.05666C59.938 7.17132 61.7087 6.64011 63.568 6.64011C65.1616 6.64011 66.7552 6.99425 68.2603 7.70252C69.8539 8.32227 71.1819 9.29615 72.2444 10.6242Z" fill="#00102A"/>
<path d="M81.2749 11.8636C82.6029 11.8636 83.9309 12.2178 85.1704 12.9261C86.4099 13.6343 87.2953 14.5197 88.0035 15.7592C88.7118 16.9101 88.9774 18.2382 88.9774 19.5662C88.9774 20.8942 88.6233 22.2222 87.915 23.3732C87.2067 24.5241 86.3214 25.498 85.1704 26.2063C84.0195 26.9146 82.6915 27.1802 81.2749 27.1802C79.1501 27.1802 77.3794 26.4719 75.9628 24.9668C74.4577 23.4617 73.7495 21.691 73.7495 19.5662C73.7495 17.2643 74.5463 15.405 76.2284 13.8999C77.7335 12.5719 79.4157 11.8636 81.2749 11.8636ZM81.3634 15.3165C80.2125 15.3165 79.3271 15.6706 78.5303 16.4675C77.7335 17.2643 77.3794 18.2382 77.3794 19.4776C77.3794 20.7171 77.7335 21.7795 78.5303 22.5764C79.2386 23.3732 80.2125 23.7273 81.3634 23.7273C82.5144 23.7273 83.4883 23.3732 84.1965 22.5764C84.9934 21.7795 85.3475 20.8057 85.3475 19.4776C85.3475 18.1496 84.9934 17.1757 84.1965 16.4675C83.4883 15.6706 82.5144 15.3165 81.3634 15.3165Z" fill="#00102A"/>
<path d="M91.2793 12.2178H94.9093V13.8999C95.529 13.1917 96.2373 12.6605 96.9456 12.3949C97.7424 12.0407 98.5392 11.8636 99.4245 11.8636C100.31 11.8636 101.195 12.1293 101.903 12.5719C102.612 13.0146 103.232 13.6343 103.674 14.5197C104.294 13.6343 105.002 13.0146 105.799 12.5719C106.596 12.1293 107.57 11.8636 108.544 11.8636C109.606 11.8636 110.491 12.1293 111.288 12.5719C112.085 13.0146 112.616 13.7229 112.97 14.4312C113.324 15.228 113.502 16.4675 113.502 18.2382V26.7375H109.872V19.3891C109.872 17.7069 109.695 16.6445 109.252 16.0248C108.809 15.405 108.189 15.1394 107.393 15.1394C106.773 15.1394 106.242 15.3165 105.71 15.6706C105.179 16.0248 104.825 16.556 104.648 17.1757C104.382 17.7955 104.294 18.7694 104.294 20.1859V26.7375H100.664V19.6547C100.664 18.3267 100.575 17.4413 100.398 16.8216C100.221 16.2019 99.9557 15.8477 99.5131 15.4936C99.1589 15.228 98.6277 15.0509 98.0965 15.0509C97.4768 15.0509 96.9456 15.228 96.4143 15.5821C95.8831 15.9362 95.529 16.4675 95.2634 17.0872C94.9978 17.7069 94.9093 18.7694 94.9093 20.1859V26.649H91.2793V12.2178Z" fill="#00102A"/>
<path d="M116.246 12.2178H119.876V13.8999C120.496 13.1917 121.204 12.6605 121.912 12.3949C122.709 12.0407 123.506 11.8636 124.391 11.8636C125.277 11.8636 126.162 12.1293 126.87 12.5719C127.579 13.0146 128.198 13.6343 128.641 14.5197C129.261 13.6343 129.969 13.0146 130.766 12.5719C131.563 12.1293 132.537 11.8636 133.51 11.8636C134.573 11.8636 135.458 12.1293 136.255 12.5719C137.052 13.0146 137.583 13.7229 137.937 14.4312C138.291 15.228 138.468 16.4675 138.468 18.2382V26.7375H134.838V19.3891C134.838 17.7069 134.661 16.6445 134.219 16.0248C133.776 15.405 133.156 15.1394 132.359 15.1394C131.74 15.1394 131.209 15.3165 130.677 15.6706C130.146 16.0248 129.792 16.556 129.615 17.1757C129.349 17.7955 129.261 18.7694 129.261 20.1859V26.7375H125.631V19.6547C125.631 18.3267 125.542 17.4413 125.365 16.8216C125.188 16.2019 124.923 15.8477 124.48 15.4936C124.126 15.228 123.595 15.0509 123.063 15.0509C122.444 15.0509 121.912 15.228 121.381 15.5821C120.85 15.9362 120.496 16.4675 120.23 17.0872C119.965 17.7069 119.876 18.7694 119.876 20.1859V26.649H116.246V12.2178Z" fill="#00102A"/>
<path d="M141.301 12.2178H145.02V19.212C145.02 20.5401 145.108 21.5139 145.286 22.0451C145.463 22.5764 145.817 23.019 146.171 23.2846C146.525 23.5502 147.056 23.7273 147.676 23.7273C148.296 23.7273 148.827 23.5502 149.181 23.2846C149.624 23.019 149.889 22.5764 150.155 22.0451C150.332 21.6025 150.421 20.7171 150.421 19.3891V12.3063H154.05V18.5038C154.05 21.0713 153.873 22.7534 153.431 23.7273C152.9 24.8783 152.191 25.7636 151.306 26.3833C150.332 27.0031 149.181 27.2687 147.676 27.2687C146.082 27.2687 144.754 26.9146 143.78 26.2063C142.807 25.498 142.098 24.5241 141.744 23.1961C141.479 22.3108 141.301 20.7171 141.301 18.4152V12.2178Z" fill="#00102A"/>
<path d="M157.061 12.2178H160.691V13.7229C161.487 13.0146 162.284 12.5719 162.904 12.3063C163.612 12.0407 164.232 11.8636 164.94 11.8636C166.357 11.8636 167.596 12.3949 168.57 13.3687C169.456 14.2541 169.81 15.4936 169.81 17.1757V26.7375H166.18V20.363C166.18 18.5923 166.091 17.4413 165.914 16.9101C165.737 16.3789 165.471 15.9362 165.117 15.5821C164.763 15.3165 164.232 15.1394 163.701 15.1394C162.992 15.1394 162.373 15.405 161.842 15.8477C161.31 16.3789 160.956 16.9987 160.779 17.884C160.691 18.3267 160.602 19.3006 160.602 20.8057V26.649H156.972V12.2178H157.061Z" fill="#00102A"/>
<path d="M174.236 6.28596C174.856 6.28596 175.387 6.55157 175.919 6.99424C176.361 7.43692 176.627 8.05666 176.627 8.6764C176.627 9.29615 176.361 9.91589 175.919 10.3586C175.476 10.8012 174.945 11.0668 174.325 11.0668C173.705 11.0668 173.085 10.8012 172.643 10.3586C172.2 9.91589 171.934 9.29615 171.934 8.6764C171.934 8.05666 172.2 7.52545 172.643 6.99424C173.085 6.46303 173.617 6.28596 174.236 6.28596ZM172.377 12.2178H176.007V26.7375H172.377V12.2178Z" fill="#00102A"/>
<path d="M179.106 6.9057H182.736V12.2178H184.861V15.3165H182.736V26.7375H179.106V15.405H177.247V12.3063H179.106V6.9057Z" fill="#00102A"/>
<path d="M184.595 12.2178H188.313L192.12 21.3369L196.282 12.2178H200L190.881 32.0496H187.074L190.084 25.6751L184.595 12.2178Z" fill="#00102A"/>
<path d="M34.263 31.1642C39.4865 31.8725 44.2674 28.2426 44.9757 23.019C45.6839 17.7955 42.054 13.0146 36.8305 12.3063C31.6069 11.5981 26.826 15.228 26.1178 20.4515C25.4095 25.6751 29.0394 30.456 34.263 31.1642ZM36.2993 16.4675C39.2209 16.9101 41.2572 19.5662 40.9031 22.4878C40.4604 25.4095 37.8043 27.4458 34.8827 27.0916C31.9611 26.649 29.9248 23.9929 30.2789 21.0713C30.633 18.0611 33.3776 16.0248 36.2993 16.4675Z" fill="url(#paint0_linear_2722_409)"/>
<path d="M41.4343 14.2541C38.6012 12.3063 31.1642 14.077 30.2789 20.9827C30.7216 18.0611 33.3776 16.0248 36.2993 16.3789C39.2209 16.8216 41.2572 19.4776 40.9031 22.3993C39.8406 30.0133 31.1642 31.3413 27.0916 25.9407C28.4197 28.5967 31.0757 30.633 34.263 31.0757C39.4865 31.8725 44.2674 28.2426 44.9757 23.019C45.4183 19.5662 44.0018 16.2904 41.4343 14.2541Z" fill="url(#paint1_linear_2722_409)"/>
<path d="M15.5821 31.1642C23.6388 31.1642 30.456 24.8783 31.0757 16.8216C31.0757 16.4675 31.1642 16.0248 31.1642 15.6707C31.1642 13.8114 29.6591 12.3063 27.7999 12.3063H18.4152C16.556 12.3063 15.0509 13.8114 15.0509 15.6707C15.0509 17.5299 16.556 19.035 18.4152 19.035H23.7273C22.3993 22.2222 19.212 24.4356 15.5821 24.4356C10.7127 24.4356 6.81718 20.4515 6.81718 15.6707C6.81718 10.8012 10.8012 6.90571 15.5821 6.90571C18.1496 6.90571 20.5401 7.96813 22.2222 9.91589C23.4617 11.3324 25.5865 11.5095 27.0031 10.27C28.4197 9.03055 28.5967 6.90571 27.3572 5.48915C24.3471 1.94776 20.0974 0 15.5821 0C6.99425 0 0 6.99425 0 15.5821C0 24.17 6.99425 31.1642 15.5821 31.1642Z" fill="url(#paint2_linear_2722_409)"/>
<path d="M15.5821 31.1642C21.691 31.1642 27.0916 27.5343 29.6591 22.2222V17.2643L23.7273 18.9464C22.6649 21.3369 20.6286 23.2846 18.0611 23.9929C17.2643 24.2585 16.4675 24.3471 15.5821 24.3471C15.4936 24.3471 15.4936 24.3471 15.405 24.3471C6.64011 24.9668 0.17707 19.6547 0 15.5821C0 24.17 6.99425 31.1642 15.5821 31.1642Z" fill="url(#paint3_linear_2722_409)"/>
<path d="M31.0757 16.7331C31.0757 16.3789 31.1642 15.9362 31.1642 15.5821C31.1642 13.7229 29.6591 12.2178 27.7999 12.2178H18.4152C16.556 12.2178 15.0509 13.7229 15.0509 15.5821C15.0509 17.4413 16.556 18.9464 18.4152 18.9464H23.7273C28.154 18.9464 29.3935 22.1337 27.0916 26.0292C29.305 23.5502 30.8101 20.2745 31.0757 16.7331Z" fill="url(#paint4_linear_2722_409)"/>
<path d="M7.87959 11.2439C9.38468 8.58787 12.2178 6.81718 15.4936 6.81718C18.0611 6.81718 20.4515 7.87959 22.1337 9.82736C23.3732 11.2439 25.498 11.421 26.9146 10.1815C28.3311 8.94201 28.5082 6.81718 27.2687 5.40062C22.6649 4.76837e-07 12.2178 0.973882 7.87959 11.2439Z" fill="url(#paint5_linear_2722_409)"/>
<path d="M45.0642 17.0872C46.1266 17.2643 47.189 16.4675 47.2776 15.4051C47.4546 14.3426 46.6578 13.2802 45.5954 13.1917C44.533 13.0146 43.4706 13.8114 43.382 14.8738C43.205 15.9363 44.0018 16.9101 45.0642 17.0872ZM45.5069 13.9885C46.1266 14.077 46.5693 14.6082 46.4807 15.228C46.3922 15.8477 45.861 16.2904 45.2413 16.2019C44.6215 16.1133 44.1788 15.5821 44.2674 14.9624C44.2674 14.3426 44.8871 13.9 45.5069 13.9885Z" fill="url(#paint6_linear_2722_409)"/>
<path d="M46.5693 13.5458C45.9495 13.1032 44.4444 13.5458 44.2674 14.9624C44.3559 14.3426 44.8871 13.9 45.5069 13.9885C46.1266 14.077 46.5693 14.6082 46.4807 15.228C46.3037 16.8216 44.4444 17.0872 43.5591 15.9363C43.8247 16.4675 44.3559 16.9101 45.0642 16.9987C46.1266 17.1757 47.189 16.3789 47.2776 15.3165C47.4546 14.6968 47.1005 13.9885 46.5693 13.5458Z" fill="url(#paint7_linear_2722_409)"/>
<path d="M42.8508 11.0668C43.9132 11.2439 44.9757 10.4471 45.0642 9.38469C45.2413 8.23373 44.4444 7.25985 43.382 7.08278C42.3196 6.90571 41.2572 7.70252 41.1687 8.76494C41.0801 9.82736 41.6999 10.8898 42.8508 11.0668ZM43.205 7.96813C43.8247 8.05666 44.2674 8.58787 44.1788 9.20761C44.0903 9.82736 43.5591 10.27 42.9394 10.1815C42.3196 10.093 41.8769 9.56175 41.9655 8.94201C42.054 8.32227 42.5852 7.87959 43.205 7.96813Z" fill="url(#paint8_linear_2722_409)"/>
<path d="M44.2674 7.52545C43.6476 7.08278 42.1425 7.52545 41.9655 8.94201C42.054 8.32227 42.5852 7.87959 43.205 7.96813C43.8247 8.05666 44.2674 8.58787 44.1788 9.20761C44.0018 10.8012 42.1425 11.0668 41.2572 9.91589C41.5228 10.4471 42.054 10.8898 42.7623 10.9783C43.8247 11.1554 44.8871 10.3586 44.9757 9.29615C45.1527 8.58787 44.8871 7.96813 44.2674 7.52545Z" fill="url(#paint9_linear_2722_409)"/>
<path d="M35.9451 11.7751C37.0075 11.9522 38.0699 11.1554 38.1585 10.093C38.3355 9.03055 37.5387 7.96813 36.4763 7.8796C35.4139 7.70253 34.3515 8.49934 34.2629 9.56176C34.1744 10.6242 34.8827 11.5981 35.9451 11.7751ZM36.3878 8.67641C37.0075 8.76494 37.4502 9.29615 37.3617 9.91589C37.2731 10.5356 36.7419 10.9783 36.1222 10.8898C35.5024 10.8012 35.0598 10.27 35.1483 9.65029C35.2368 9.03055 35.768 8.58787 36.3878 8.67641Z" fill="url(#paint10_linear_2722_409)"/>
<path d="M37.4502 8.23374C36.8305 7.79106 35.3254 8.23374 35.1483 9.65029C35.2368 9.03055 35.768 8.58788 36.3878 8.67641C37.0075 8.76495 37.4502 9.29615 37.3617 9.9159C37.1846 11.5095 35.3254 11.7751 34.44 10.6242C34.7056 11.1554 35.2368 11.5981 35.9451 11.6866C37.0075 11.8637 38.0699 11.0668 38.1585 10.0044C38.3355 9.38469 37.9814 8.67641 37.4502 8.23374Z" fill="url(#paint11_linear_2722_409)"/>
</g>
<defs>
<linearGradient id="paint0_linear_2722_409" x1="37.9063" y1="28.0782" x2="32.3398" y2="13.1412" gradientUnits="userSpaceOnUse">
<stop stop-color="#FFA517"/>
<stop offset="1" stop-color="#FC2AFF"/>
</linearGradient>
<linearGradient id="paint1_linear_2722_409" x1="31.9192" y1="19.1564" x2="41.7396" y2="26.2152" gradientUnits="userSpaceOnUse">
<stop stop-color="#7F00FF"/>
<stop offset="1" stop-color="#FC2AFF"/>
</linearGradient>
<linearGradient id="paint2_linear_2722_409" x1="12.4798" y1="28.1701" x2="19.7872" y2="-1.70066" gradientUnits="userSpaceOnUse">
<stop stop-color="#FFA517"/>
<stop offset="1" stop-color="#FC2AFF"/>
</linearGradient>
<linearGradient id="paint3_linear_2722_409" x1="25.9141" y1="12.7206" x2="0.786899" y2="29.643" gradientUnits="userSpaceOnUse">
<stop stop-color="#7F00FF"/>
<stop offset="1" stop-color="#FC2AFF"/>
</linearGradient>
<linearGradient id="paint4_linear_2722_409" x1="14.9918" y1="19.0948" x2="31.1282" y2="19.0948" gradientUnits="userSpaceOnUse">
<stop stop-color="#FFA517"/>
<stop offset="1" stop-color="#FC2AFF"/>
</linearGradient>
<linearGradient id="paint5_linear_2722_409" x1="7.91191" y1="6.68977" x2="28.1511" y2="6.68977" gradientUnits="userSpaceOnUse">
<stop stop-color="#7F00FF"/>
<stop offset="1" stop-color="#FC2AFF"/>
</linearGradient>
<linearGradient id="paint6_linear_2722_409" x1="45.8416" y1="16.4188" x2="44.6769" y2="13.2934" gradientUnits="userSpaceOnUse">
<stop stop-color="#FFA517"/>
<stop offset="1" stop-color="#FC2AFF"/>
</linearGradient>
<linearGradient id="paint7_linear_2722_409" x1="44.5889" y1="14.5521" x2="46.6438" y2="16.0291" gradientUnits="userSpaceOnUse">
<stop stop-color="#7F00FF"/>
<stop offset="1" stop-color="#FC2AFF"/>
</linearGradient>
<linearGradient id="paint8_linear_2722_409" x1="43.5849" y1="10.3934" x2="42.4202" y2="7.26799" gradientUnits="userSpaceOnUse">
<stop stop-color="#FFA517"/>
<stop offset="1" stop-color="#FC2AFF"/>
</linearGradient>
<linearGradient id="paint9_linear_2722_409" x1="42.3322" y1="8.52664" x2="44.387" y2="10.0036" gradientUnits="userSpaceOnUse">
<stop stop-color="#7F00FF"/>
<stop offset="1" stop-color="#FC2AFF"/>
</linearGradient>
<linearGradient id="paint10_linear_2722_409" x1="36.7565" y1="11.1123" x2="35.5919" y2="7.98692" gradientUnits="userSpaceOnUse">
<stop stop-color="#FFA517"/>
<stop offset="1" stop-color="#FC2AFF"/>
</linearGradient>
<linearGradient id="paint11_linear_2722_409" x1="35.5038" y1="9.24557" x2="37.5587" y2="10.7226" gradientUnits="userSpaceOnUse">
<stop stop-color="#7F00FF"/>
<stop offset="1" stop-color="#FC2AFF"/>
</linearGradient>
<clipPath id="clip0_2722_409">
<rect width="200" height="32.1381" fill="white"/>
</clipPath>
</defs>
</svg>
